<?xml version="1.0" encoding="UTF-8" standalone="no"?>
<svg width="100" height="100" viewBox="0 0 100 100" xmlns="http://www.w3.org/2000/svg">
  <defs>
    <pattern id="wave-pattern" x="0" y="0" width="100" height="100" patternUnits="userSpaceOnUse">
      <path d="M0,50 C15,40 35,40 50,50 C65,60 85,60 100,50 L100,100 L0,100 Z" fill="#0080c7" opacity="0.2"/>
      <path d="M0,60 C15,50 35,50 50,60 C65,70 85,70 100,60 L100,100 L0,100 Z" fill="#0080c7" opacity="0.1"/>
      <path d="M0,40 C15,30 35,30 50,40 C65,50 85,50 100,40 L100,100 L0,100 Z" fill="#0080c7" opacity="0.15"/>
      <path d="M0,30 C15,20 35,20 50,30 C65,40 85,40 100,30 L100,100 L0,100 Z" fill="#0069a3" opacity="0.05"/>
    </pattern>
  </defs>
  <rect width="100" height="100" fill="url(#wave-pattern)" />
</svg>
