<?xml version="1.0" encoding="UTF-8"?>
<svg width="100" height="100" viewBox="0 0 100 100" xmlns="http://www.w3.org/2000/svg">
  <!-- Ondas pequenas -->
  <path d="M0,25 C10,20 15,30 25,25 C35,20 40,30 50,25 C60,20 65,30 75,25 C85,20 90,30 100,25" stroke="#FFFFFF" fill="none" stroke-width="1"/>
  <path d="M0,35 C10,30 15,40 25,35 C35,30 40,40 50,35 C60,30 65,40 75,35 C85,30 90,40 100,35" stroke="#FFFFFF" fill="none" stroke-width="1"/>
  <path d="M0,45 C10,40 15,50 25,45 C35,40 40,50 50,45 C60,40 65,50 75,45 C85,40 90,50 100,45" stroke="#FFFFFF" fill="none" stroke-width="1"/>
  
  <!-- Prancha de surf -->
  <path d="M20,60 Q25,55 25,65 L30,75 Q35,80 40,75 L35,65 Q30,55 35,50 Z" fill="#FFFFFF" />
  
  <!-- Símbolos de surf -->
  <circle cx="60" cy="60" r="3" fill="#FFFFFF" />
  <circle cx="70" cy="70" r="3" fill="#FFFFFF" />
  <circle cx="80" cy="60" r="3" fill="#FFFFFF" />
  
  <!-- Ondas pequenas adicionais -->
  <path d="M0,85 C10,80 15,90 25,85 C35,80 40,90 50,85 C60,80 65,90 75,85 C85,80 90,90 100,85" stroke="#FFFFFF" fill="none" stroke-width="1"/>
</svg>
